<svg width="24" height="24" viewBox="0 0 24 24" fill="none" xmlns="http://www.w3.org/2000/svg">
<path d="M24 16.125C24 18.4031 22.7351 20.25 20.25 20.25H3.75C1.26488 20.25 0 18.4031 0 16.125V7.875C0 5.59688 1.26488 3.75 3.75 3.75H20.25C22.7351 3.75 24 5.59688 24 7.875V16.125Z" fill="#128807"/>
<path d="M21.4274 12.2962L12.0562 18.8812L2.68457 12.2962L12.0562 5.71118L21.4274 12.2962Z" fill="#F9CB38"/>
<path fill-rule="evenodd" clip-rule="evenodd" d="M15.7538 13.443C15.3271 14.8932 13.9917 15.9972 12.4797 16.1472C10.4596 16.3493 8.69218 15.0653 8.26243 13.0804C8.13528 12.4971 8.1515 11.8917 8.30968 11.316C8.36856 11.2523 8.44993 11.2369 8.53093 11.2257C9.12178 11.1436 9.71907 11.1176 10.3148 11.148C10.9504 11.184 11.5808 11.2722 12.1936 11.4454C12.8224 11.6235 13.4314 11.856 14.0063 12.165C14.4389 12.3949 14.8522 12.6595 15.2419 12.9563C15.3739 13.0587 15.5086 13.1592 15.6353 13.2683C15.6919 13.317 15.7366 13.3695 15.7538 13.443Z" fill="#002776"/>
<path fill-rule="evenodd" clip-rule="evenodd" d="M8.52148 10.7291C9.00561 9.64721 9.82198 8.92683 10.9504 8.58858C13.2229 7.90721 15.5542 9.40908 15.8921 11.7513C15.9446 12.1132 15.9469 12.4762 15.8914 12.8388C15.834 12.8602 15.7912 12.8298 15.7519 12.7972C15.34 12.4607 14.9006 12.1593 14.4382 11.8965C14.0822 11.6944 13.7123 11.518 13.3312 11.3685C13.2637 11.3418 13.179 11.328 13.1557 11.2376C13.1801 11.1941 13.2109 11.1562 13.2476 11.121C13.2607 11.1075 13.2799 11.0943 13.2622 11.0718C13.2562 11.0647 13.2439 11.0647 13.2334 11.0658C13.2052 11.0688 13.209 11.0883 13.2101 11.109C13.2124 11.1761 13.1734 11.2192 13.122 11.2537C13.0309 11.2743 12.9435 11.247 12.8696 11.2076C12.6581 11.0966 12.4241 11.0587 12.2002 10.9968C11.8511 10.902 11.4926 10.8483 11.1349 10.7925C10.8493 10.7469 10.5619 10.7141 10.2735 10.6942C10.011 10.6758 9.74361 10.6785 9.47923 10.6965C9.19086 10.7167 8.90173 10.737 8.61486 10.7715C8.59687 10.7741 8.57851 10.7715 8.56195 10.764C8.5454 10.7565 8.53135 10.7443 8.52148 10.7291Z" fill="#002776"/>
<path fill-rule="evenodd" clip-rule="evenodd" d="M13.1591 11.2143C13.1576 11.26 13.1984 11.254 13.2232 11.2638C14.1916 11.6405 15.0921 12.1725 15.8894 12.8388C15.8664 13.0445 15.8209 13.2471 15.7537 13.4429C15.2846 13.0537 14.8042 12.6828 14.2728 12.3798C12.5932 11.4232 10.7947 11.044 8.87207 11.2473C8.68457 11.2664 8.49707 11.2919 8.30957 11.3148C8.35795 11.1119 8.41944 10.9128 8.52032 10.7283C9.92394 10.5389 11.3032 10.6465 12.6566 11.0654C12.8246 11.1175 12.9847 11.2015 13.1639 11.2173L13.1591 11.2132" fill="#FEFEFE"/>
<path fill-rule="evenodd" clip-rule="evenodd" d="M14.9061 13.6312C14.7932 13.6192 14.9158 13.7576 14.8018 13.7546C14.7024 13.7531 14.6972 13.6736 14.6484 13.6294C14.6859 13.5904 14.7523 13.5825 14.7733 13.5217C14.7876 13.5859 14.8479 13.5994 14.9061 13.6312Z" fill="#D9DFEA"/>
<path fill-rule="evenodd" clip-rule="evenodd" d="M10.6479 14.3249C10.5418 14.3373 10.6307 14.4528 10.5418 14.4547C10.4522 14.4566 10.406 14.3902 10.388 14.3216C10.3817 14.3021 10.4679 14.2586 10.5103 14.2263C10.5155 14.2942 10.586 14.2912 10.6479 14.3249Z" fill="#E9ECF3"/>
<path fill-rule="evenodd" clip-rule="evenodd" d="M12.0526 14.1161C11.9052 14.2113 12.0241 13.9961 11.9375 14.0171C11.9656 13.9721 12.0451 13.9826 12.0504 13.9136C12.0879 13.9526 12.1198 13.9976 12.1794 14.0058C12.0943 13.9942 12.1869 14.1832 12.0526 14.1161Z" fill="#EDEFF5"/>
<path fill-rule="evenodd" clip-rule="evenodd" d="M9.00797 11.5894C8.97272 11.6565 8.94609 11.7315 8.83922 11.6865C8.78447 11.6636 8.84297 11.5886 8.77734 11.5815L8.89884 11.4746C8.90709 11.4922 8.91684 11.5091 8.92509 11.5267C8.93484 11.5714 9.02372 11.5121 9.00797 11.5894Z" fill="#F0F2F6"/>
<path fill-rule="evenodd" clip-rule="evenodd" d="M9.34771 13.2188C9.29183 13.2364 9.33196 13.3834 9.21196 13.3193C9.19996 13.3133 9.14746 13.3422 9.15721 13.3253C9.18871 13.2638 9.11821 13.2338 9.12908 13.1847C9.19471 13.2132 9.19096 13.0932 9.25808 13.1254C9.26296 13.1292 9.26296 13.1442 9.26633 13.1539C9.27346 13.2004 9.36421 13.1423 9.34771 13.2188Z" fill="#ECEFF4"/>
<path fill-rule="evenodd" clip-rule="evenodd" d="M8.75736 13.653C8.64223 13.6931 8.72811 13.554 8.66211 13.5551C8.69286 13.5292 8.72736 13.4808 8.75811 13.4827C8.79486 13.4846 8.82861 13.53 8.86236 13.5558C8.81211 13.5727 8.86498 13.7088 8.75736 13.653Z" fill="#D9DFEA"/>
<path fill-rule="evenodd" clip-rule="evenodd" d="M13.2073 14.98C13.0854 15.0355 13.2039 14.8716 13.1225 14.893C13.1143 14.8304 13.2159 14.8682 13.2032 14.8022L13.313 14.8904C13.2684 14.9106 13.313 15.0381 13.2073 14.98Z" fill="#D8DEEA"/>
<path fill-rule="evenodd" clip-rule="evenodd" d="M13.9879 14.8897C13.887 14.9317 13.9489 14.796 13.8945 14.7825C13.9313 14.7588 13.9699 14.7337 14.0059 14.7093C14.0089 14.7648 14.085 14.7446 14.0933 14.7937C14.0367 14.7971 14.0955 14.9193 13.9879 14.8897ZM14.6892 14.385C14.5744 14.4431 14.6592 14.2905 14.5935 14.2968C14.6067 14.2481 14.682 14.2665 14.6865 14.2102L14.7942 14.2908C14.7285 14.289 14.8092 14.4498 14.6892 14.385Z" fill="#DCE1EC"/>
<path fill-rule="evenodd" clip-rule="evenodd" d="M10.0434 13.6847C9.92341 13.7526 10.0018 13.6007 9.94629 13.5977C9.95191 13.5418 10.0367 13.5658 10.0404 13.5066C10.0517 13.5613 10.1244 13.5456 10.1402 13.5947C10.0685 13.5842 10.1705 13.7563 10.0434 13.6847Z" fill="#D4DAE7"/>
<path fill-rule="evenodd" clip-rule="evenodd" d="M10.5299 12.5457C10.4621 12.5412 10.5491 12.4343 10.4658 12.4411C10.4801 12.3811 10.5442 12.3934 10.5794 12.3623C10.5974 12.4002 10.6484 12.4088 10.6511 12.4632C10.6571 12.5626 10.5689 12.5112 10.5299 12.5457Z" fill="#F2F4F7"/>
<path fill-rule="evenodd" clip-rule="evenodd" d="M12.5063 13.3375C12.4024 13.3971 12.4572 13.264 12.4092 13.2494C12.4418 13.2224 12.4733 13.195 12.5063 13.1672C12.5086 13.2227 12.6147 13.2104 12.5847 13.2531C12.5667 13.2786 12.6248 13.3952 12.5063 13.3375Z" fill="#E6E9F1"/>
<path fill-rule="evenodd" clip-rule="evenodd" d="M12.0409 13.0036C11.9224 13.0156 12.0446 12.9079 11.9678 12.9106C11.9978 12.8824 12.0266 12.8344 12.0604 12.8314C12.0896 12.8284 12.1234 12.8761 12.1553 12.9023C12.1136 12.9424 12.12 13.0459 12.0409 13.0036Z" fill="#EAEDF3"/>
<path fill-rule="evenodd" clip-rule="evenodd" d="M14.9182 13.8787C14.9425 13.9432 14.9905 13.9518 15.028 13.9747C14.9898 14.0178 14.9748 14.0838 14.8953 14.0838C14.8139 14.0845 14.869 14.0227 14.8507 13.9938C14.8053 13.9218 14.9729 13.9825 14.9182 13.8787Z" fill="#E4E8F0"/>
<path fill-rule="evenodd" clip-rule="evenodd" d="M14.0697 15.1853C14.0412 15.2277 14.0607 15.2682 13.9849 15.2697C13.8983 15.2712 13.926 15.2078 13.9223 15.1883C13.9152 15.1561 13.9647 15.1253 13.9932 15.1317C14.0179 15.1362 14.0659 15.1501 14.0697 15.1853Z" fill="#CED5E4"/>
<path fill-rule="evenodd" clip-rule="evenodd" d="M10.0179 13.9838C9.95606 13.9909 10.0074 14.0719 9.92906 14.0693C9.85743 14.0671 9.86793 14.0187 9.86006 13.9894C9.84768 13.9486 9.90806 13.9497 9.92156 13.9189C9.95006 13.9388 9.97894 13.9587 10.0179 13.9838Z" fill="#DAE0EB"/>
<path fill-rule="evenodd" clip-rule="evenodd" d="M13.9014 14.412C13.928 14.3921 13.9546 14.3737 13.9827 14.355C13.985 14.3966 14.0746 14.3726 14.0446 14.4259C14.0322 14.4472 14.0626 14.5057 13.985 14.5005C13.9152 14.4956 13.9317 14.4469 13.9014 14.412Z" fill="#D8DEE9"/>
<path fill-rule="evenodd" clip-rule="evenodd" d="M13.6159 14.5405C13.6024 14.6144 13.5604 14.6264 13.5143 14.635C13.4359 14.6481 13.4948 14.5892 13.482 14.5667C13.449 14.5105 13.5323 14.5214 13.542 14.4846C13.5638 14.5131 13.6136 14.5124 13.6159 14.5405Z" fill="#CBD2E3"/>
<path fill-rule="evenodd" clip-rule="evenodd" d="M13.1774 12.1088C13.1512 12.1212 13.186 12.1838 13.1298 12.1658C13.087 12.1512 13.0345 12.1309 13.0383 12.0784C13.0398 12.0582 13.0908 12.0413 13.1193 12.0237C13.1242 12.0616 13.2052 12.0492 13.1774 12.1088Z" fill="#D1D8E6"/>
<path fill-rule="evenodd" clip-rule="evenodd" d="M15.2997 13.7535C15.2292 13.7813 15.261 13.7232 15.2487 13.7063C15.2014 13.6422 15.2948 13.6515 15.2997 13.6133C15.3285 13.6324 15.3848 13.6542 15.3825 13.6707C15.3809 13.6921 15.3716 13.7122 15.3564 13.7274C15.3412 13.7426 15.3211 13.7519 15.2997 13.7535Z" fill="#DADFEA"/>
<path fill-rule="evenodd" clip-rule="evenodd" d="M11.6741 13.1812C11.6741 13.2247 11.7618 13.2074 11.7322 13.2618C11.7202 13.2839 11.7457 13.3432 11.6849 13.3308C11.6388 13.3214 11.5923 13.2944 11.5908 13.2487C11.5908 13.2273 11.6441 13.2044 11.6741 13.1812Z" fill="#CAD2E2"/>
<path fill-rule="evenodd" clip-rule="evenodd" d="M12.8743 14.5379C12.8398 14.5218 12.8383 14.4764 12.8405 14.4547C12.8443 14.4258 12.8829 14.3868 12.9159 14.4025C12.9361 14.4123 12.9935 14.4067 12.9796 14.4592C12.9669 14.5094 12.9166 14.5165 12.8743 14.5379Z" fill="#D0D7E5"/>
<path fill-rule="evenodd" clip-rule="evenodd" d="M14.3252 14.4721C14.3267 14.4717 14.3529 14.4353 14.3826 14.4346C14.4039 14.4338 14.4257 14.4781 14.4486 14.5028C14.4178 14.5115 14.4441 14.5681 14.3833 14.5673C14.3286 14.5662 14.3286 14.5415 14.3252 14.4721Z" fill="#EFF2F6"/>
<path fill-rule="evenodd" clip-rule="evenodd" d="M11.9126 13.5224C11.9025 13.5629 11.9025 13.5881 11.8665 13.5873C11.8298 13.5866 11.8118 13.5731 11.8125 13.5356C11.8125 13.5059 11.832 13.4853 11.8541 13.4872C11.8796 13.4891 11.916 13.4962 11.9126 13.5224Z" fill="#CCD4E3"/>
<path fill-rule="evenodd" clip-rule="evenodd" d="M9.61298 12.939C9.63098 12.9585 9.6516 12.9738 9.65948 12.9937C9.66623 13.0102 9.65573 13.0353 9.63248 13.038C9.6066 13.0402 9.57885 13.0395 9.5706 13.0072C9.5631 12.9757 9.59048 12.9645 9.61298 12.939Z" fill="#E0E5EE"/>
<path fill-rule="evenodd" clip-rule="evenodd" d="M9.34798 13.2188C9.33785 13.1757 9.2711 13.2031 9.2666 13.1536C9.28085 13.1911 9.39223 13.1074 9.34798 13.2188Z" fill="#7085B1"/>
<path fill-rule="evenodd" clip-rule="evenodd" d="M9.00768 11.5892C8.99943 11.5431 8.92855 11.5795 8.9248 11.5266C8.94468 11.5581 9.04518 11.4835 9.00768 11.5892Z" fill="#5C75A7"/>
<path fill-rule="evenodd" clip-rule="evenodd" d="M13.1665 11.2184C13.1737 11.1899 13.1965 11.1434 13.1875 11.1348C13.0653 11.026 13.2284 11.0076 13.2528 10.9855C13.2974 10.9424 13.2903 11.1243 13.408 11.0091C13.3447 11.1498 13.2599 11.1903 13.1624 11.2143L13.1665 11.2184Z" fill="#E7EAF2"/>
<path fill-rule="evenodd" clip-rule="evenodd" d="M9.55206 11.1017C9.43281 11.0901 9.53894 10.9349 9.51306 10.8449C9.48081 10.7286 9.56556 10.7301 9.64806 10.7297C9.77594 10.729 9.84831 10.783 9.84831 10.918C9.84794 11.0507 9.78644 11.1032 9.55206 11.1017Z" fill="#15A24A"/>
<path fill-rule="evenodd" clip-rule="evenodd" d="M14.1083 11.8512C14.082 11.9314 13.9849 11.9817 13.9684 12.0807C13.9669 12.0938 13.9294 12.0912 13.9223 12.0529C13.8923 11.8737 13.8908 11.8741 13.7584 11.9701C13.7479 11.9779 13.7295 11.9851 13.7194 11.9817C13.6999 11.9731 13.692 11.9536 13.7037 11.9314C13.7475 11.8459 13.7888 11.7582 13.8379 11.6753C13.8709 11.6206 13.911 11.6663 13.9433 11.6821C14.0142 11.7169 14.1015 11.7368 14.1083 11.8512Z" fill="#13A248"/>
<path fill-rule="evenodd" clip-rule="evenodd" d="M14.4433 12.1429C14.3743 12.1707 14.3409 12.1186 14.2967 12.0998C14.2667 12.0871 14.2386 12.0751 14.2183 12.1084C14.1962 12.1437 14.2183 12.1639 14.2487 12.1797C14.2719 12.1913 14.2967 12.2003 14.3139 12.2187C14.3443 12.2506 14.4396 12.2419 14.4009 12.3098C14.3706 12.3638 14.3196 12.3008 14.2858 12.2809C14.2277 12.2453 14.1126 12.2258 14.1249 12.1639C14.1441 12.0646 14.2007 11.9566 14.2761 11.8883C14.3364 11.8336 14.4032 11.9371 14.4711 11.9629C14.5003 11.9738 14.5502 11.9836 14.5416 12.0297C14.5333 12.0773 14.4981 12.0496 14.4711 12.0432C14.4077 12.0286 14.3462 11.9213 14.2963 11.9956C14.2663 12.0398 14.3897 12.0582 14.4287 12.1069C14.4347 12.1141 14.4362 12.1238 14.4433 12.1429ZM15.2514 12.6732C15.2627 12.7609 15.2271 12.8206 15.1352 12.8056C15.0399 12.7898 14.9676 12.7317 14.9511 12.6274C14.9496 12.6169 14.9623 12.5956 14.9728 12.5926C14.9789 12.5906 14.9853 12.5899 14.9916 12.5907C14.9979 12.5915 15.004 12.5936 15.0094 12.597C15.0148 12.6003 15.0194 12.6048 15.0228 12.6102C15.0263 12.6155 15.0286 12.6215 15.0294 12.6278C15.0414 12.6994 15.0789 12.7313 15.1543 12.7328C15.1689 12.6154 14.9571 12.5618 15.0789 12.4399C15.1401 12.3788 15.2147 12.4294 15.2679 12.4786C15.3171 12.5232 15.3771 12.5723 15.2874 12.6361C15.2747 12.6293 15.2574 12.6184 15.2481 12.6259C15.2289 12.6387 15.2477 12.6571 15.2514 12.6732Z" fill="#11A147"/>
<path fill-rule="evenodd" clip-rule="evenodd" d="M12.6617 11.5564C12.617 11.5312 12.6193 11.5072 12.6264 11.481C12.6407 11.4251 12.6118 11.3959 12.5608 11.3801C12.5098 11.3636 12.4704 11.3659 12.4565 11.4296C12.4517 11.4581 12.4367 11.478 12.4055 11.4675C12.3695 11.4544 12.3875 11.4251 12.3943 11.4037C12.4085 11.3546 12.4213 11.3051 12.4438 11.2582C12.464 11.2114 12.4498 11.1255 12.5237 11.1311C12.602 11.1367 12.6868 11.1555 12.7464 11.2204C12.773 11.2489 12.7839 11.298 12.7622 11.3194C12.6988 11.3846 12.704 11.4769 12.6617 11.5564Z" fill="#0FA046"/>
<path fill-rule="evenodd" clip-rule="evenodd" d="M10.3475 11.0791C10.2263 11.1248 10.1307 11.0982 10.0373 11.1001C9.99496 11.1012 9.99121 11.0693 9.99121 11.0371C9.99421 11.0014 9.99421 10.9654 9.99421 10.9298C9.99871 10.7322 10.0688 10.6816 10.2631 10.7367C10.2848 10.7427 10.3055 10.7464 10.307 10.7708C10.307 10.8046 10.2826 10.8106 10.2526 10.8098C10.2485 10.8091 10.2436 10.8079 10.2383 10.8087C10.1802 10.8229 10.076 10.7573 10.0741 10.8443C10.0718 10.9111 10.1855 10.8638 10.2436 10.8863C10.2518 10.8897 10.2608 10.8972 10.2736 10.9066C10.2368 10.9729 10.1757 10.9358 10.1285 10.9437C10.1003 10.9482 10.0636 10.9358 10.0595 10.9816C10.0542 11.0356 10.0917 11.0329 10.1285 11.0367C10.1911 11.0442 10.259 11.0206 10.3475 11.0791Z" fill="#0B9F43"/>
<path fill-rule="evenodd" clip-rule="evenodd" d="M9.35208 11.1074C9.28683 11.0932 9.29583 11.0557 9.28458 11.0294C9.26508 10.9811 9.22645 10.9811 9.18408 10.9844C9.1357 10.9889 9.10945 11.0077 9.11358 11.0613C9.11658 11.0876 9.12708 11.1299 9.07833 11.1239C9.03633 11.1187 9.04833 11.0778 9.04608 11.0501C9.04233 11.0047 9.03783 10.9582 9.04233 10.9132C9.04833 10.8629 9.00033 10.7861 9.0727 10.7681C9.14733 10.7486 9.23358 10.7347 9.3112 10.7718C9.34495 10.7879 9.37158 10.8273 9.3592 10.8592C9.3307 10.9394 9.3532 11.0208 9.35208 11.1074Z" fill="#079D3F"/>
<path fill-rule="evenodd" clip-rule="evenodd" d="M8.56055 10.9801C8.57255 10.8784 8.61717 10.7959 8.72855 10.7997C8.83542 10.8031 8.89242 10.8773 8.89242 10.9842C8.89242 11.0903 8.84292 11.1634 8.73005 11.1627C8.6153 11.1619 8.5763 11.0787 8.56055 10.9801Z" fill="#15A24A"/>
<path fill-rule="evenodd" clip-rule="evenodd" d="M15.6993 12.8849C15.6888 12.9858 15.6389 13.0619 15.5238 13.072C15.4177 13.0806 15.3614 13.0199 15.3532 12.9201C15.3438 12.8193 15.4428 12.7229 15.5437 12.7236C15.6322 12.7244 15.697 12.7885 15.6993 12.8849Z" fill="#11A147"/>
<path fill-rule="evenodd" clip-rule="evenodd" d="M13.5934 11.7112C13.6782 11.7794 13.5754 11.8244 13.5717 11.8818C13.5012 11.8492 13.413 11.8623 13.356 11.8004C13.2953 11.7344 13.3065 11.6598 13.3463 11.587C13.3902 11.5102 13.4577 11.4772 13.5405 11.5064C13.6163 11.5334 13.6729 11.5844 13.6362 11.6804C13.578 11.6909 13.5304 11.6144 13.4487 11.6658C13.503 11.6909 13.5683 11.656 13.5934 11.7112Z" fill="#0C9F43"/>
<path fill-rule="evenodd" clip-rule="evenodd" d="M11.5542 10.9388C11.5047 10.9969 11.4683 10.9744 11.4342 10.9752C11.4012 10.9752 11.366 10.9478 11.3251 10.9819C11.3618 11.0419 11.4507 11.0033 11.4852 11.0629C11.4803 11.0716 11.4781 11.0832 11.4717 11.0892C11.4222 11.1282 11.3431 11.0337 11.3123 11.1117C11.2842 11.1788 11.3581 11.1556 11.39 11.1668C11.426 11.1811 11.4706 11.1758 11.5141 11.2246C11.4132 11.2688 11.2928 11.2482 11.2512 11.1994C11.1856 11.1226 11.2317 10.9861 11.2816 10.9178C11.3405 10.8372 11.4481 10.9159 11.5542 10.9388Z" fill="#19A44D"/>
<path fill-rule="evenodd" clip-rule="evenodd" d="M12.1935 11.2649C12.1083 11.2559 12.0116 11.1959 11.9872 11.3361C11.9865 11.3406 11.9568 11.347 11.9478 11.341C11.9377 11.3354 11.9321 11.3144 11.934 11.3024C11.9561 11.2135 11.9673 11.1183 12.0067 11.0384C12.0525 10.9484 12.1301 11.0245 12.1942 11.0331C12.2707 11.0433 12.3131 11.0898 12.3048 11.1704C12.2973 11.2398 12.2448 11.2585 12.1935 11.2649Z" fill="#0D9F44"/>
<path fill-rule="evenodd" clip-rule="evenodd" d="M13.2079 11.4798C13.1997 11.5927 13.1442 11.6707 13.0313 11.6741C12.9304 11.6778 12.8738 11.6069 12.876 11.5064C12.879 11.3977 12.9319 11.3189 13.0493 11.3156C13.1569 11.3118 13.1985 11.3842 13.2079 11.4798Z" fill="#0FA046"/>
<path fill-rule="evenodd" clip-rule="evenodd" d="M10.6793 11.0726C10.6669 11.0992 10.6568 11.1371 10.6212 11.1285C10.5593 11.1139 10.587 11.0542 10.572 11.0152C10.5263 10.9706 10.5383 11.0321 10.524 11.0434C10.5188 11.0711 10.5315 11.1135 10.494 11.1191C10.4479 11.1247 10.4588 11.0805 10.4599 11.0542C10.4637 10.9995 10.4644 10.9421 10.4794 10.8896C10.4925 10.8446 10.4449 10.7617 10.5345 10.761C10.6137 10.7606 10.5964 10.8412 10.6065 10.8896C10.617 10.9451 10.6227 10.9687 10.668 10.9136C10.7149 10.9012 10.7247 10.9354 10.7355 10.9684C10.7415 11.0164 10.7202 11.0497 10.6793 11.0726Z" fill="#0EA044"/>
<path fill-rule="evenodd" clip-rule="evenodd" d="M14.6737 12.4501C14.7014 12.4501 14.7296 12.4868 14.7566 12.4553C14.7772 12.4317 14.7588 12.4084 14.7404 12.3893C14.7269 12.3747 14.7127 12.3608 14.6999 12.3451C14.6617 12.2989 14.6081 12.2547 14.6609 12.1879C14.7089 12.1268 14.7648 12.1418 14.8203 12.1804C14.8304 12.1999 14.8271 12.2187 14.8166 12.2363C14.7757 12.3004 14.8518 12.3394 14.8503 12.3942C14.8619 12.4456 14.8694 12.4973 14.8128 12.5269C14.7423 12.5644 14.6879 12.5299 14.6362 12.4849C14.6306 12.4553 14.6414 12.4407 14.6737 12.4501Z" fill="#10A146"/>
<path fill-rule="evenodd" clip-rule="evenodd" d="M13.5941 11.7112C13.5652 11.7314 13.5071 11.6658 13.5089 11.7153C13.5127 11.8031 13.4688 11.7952 13.4279 11.7693C13.3728 11.7352 13.3698 11.6767 13.4047 11.6227C13.4384 11.5698 13.4861 11.5391 13.5438 11.5822C13.5791 11.6081 13.6057 11.6471 13.6361 11.6804L13.5941 11.7112Z" fill="#ECF7F0"/>
<path fill-rule="evenodd" clip-rule="evenodd" d="M10.704 10.9836C10.693 10.9605 10.681 10.9378 10.668 10.9157C10.6811 10.8824 10.6931 10.8486 10.7088 10.8164C10.7231 10.786 10.7478 10.7691 10.7827 10.7804C10.8217 10.7935 10.8187 10.8235 10.8165 10.855C10.8082 10.9469 10.8007 11.0384 10.7936 11.1302C10.7388 11.1651 10.725 11.1332 10.716 11.086C10.7092 11.0519 10.7268 11.0151 10.704 10.9836Z" fill="#17A34C"/>
<path fill-rule="evenodd" clip-rule="evenodd" d="M14.8511 12.3938C14.8174 12.3593 14.7814 12.3266 14.7499 12.2899C14.7131 12.2464 14.7274 12.2198 14.7821 12.2126C14.8612 12.2303 14.9096 12.2685 14.8864 12.3593C14.8755 12.3705 14.8635 12.3825 14.8511 12.3938Z" fill="#D7EFE0"/>
<path fill-rule="evenodd" clip-rule="evenodd" d="M14.8865 12.3592C14.8501 12.3119 14.8404 12.2444 14.7822 12.2126L14.8212 12.1799C14.8842 12.2246 14.9994 12.2501 14.8865 12.3592Z" fill="#2BAB5B"/>
<path fill-rule="evenodd" clip-rule="evenodd" d="M15.2518 12.6731C15.2469 12.6701 15.2405 12.6686 15.2383 12.6644C15.2083 12.6089 15.1089 12.5591 15.1426 12.5099C15.185 12.4507 15.2293 12.5208 15.2525 12.5714C15.263 12.5928 15.2758 12.6138 15.2878 12.6359C15.2754 12.6483 15.263 12.6607 15.2518 12.6731Z" fill="#E6F5EC"/>
<path fill-rule="evenodd" clip-rule="evenodd" d="M14.6742 12.4499C14.6622 12.4615 14.6506 12.4735 14.6367 12.4852C14.6209 12.4739 14.5992 12.466 14.5891 12.4499C14.5699 12.4135 14.5152 12.3652 14.5786 12.3367C14.6318 12.3112 14.6318 12.379 14.6491 12.412C14.6562 12.4259 14.6652 12.4375 14.6742 12.4499Z" fill="#29AA59"/>
<path fill-rule="evenodd" clip-rule="evenodd" d="M10.7048 10.9836C10.7596 11.005 10.7307 11.0508 10.7314 11.0849C10.7344 11.1318 10.7509 11.1475 10.7948 11.131C10.7033 11.2195 10.7149 11.1014 10.6797 11.0751C10.6891 11.044 10.6962 11.0136 10.7048 10.9836Z" fill="#DDF1E4"/>
<path fill-rule="evenodd" clip-rule="evenodd" d="M10.5225 11.0436V10.9229C10.5742 10.9394 10.5757 10.9757 10.5705 11.0155C10.5547 11.0249 10.5382 11.0339 10.5225 11.0436Z" fill="#6FC690"/>
<path fill-rule="evenodd" clip-rule="evenodd" d="M9.58789 10.9199C9.59314 10.8652 9.56689 10.7939 9.66027 10.7999C9.72852 10.804 9.77801 10.8314 9.78176 10.9094C9.78551 10.9934 9.73639 11.0275 9.65877 11.0332C9.56014 11.041 9.60027 10.9634 9.58789 10.9199Z" fill="#F5FBF7"/>
<path fill-rule="evenodd" clip-rule="evenodd" d="M13.9122 11.745C13.9512 11.7664 14.0108 11.7705 14.0236 11.8283C14.03 11.8583 14.0041 11.8781 13.9775 11.8695C13.928 11.8545 13.8623 11.8538 13.8556 11.784C13.8537 11.7638 13.8755 11.7383 13.9122 11.745Z" fill="#EFF8F3"/>
<path fill-rule="evenodd" clip-rule="evenodd" d="M12.6961 11.2838C12.6859 11.3228 12.6586 11.3363 12.6271 11.3247C12.5847 11.3093 12.5164 11.3262 12.5157 11.2519C12.5142 11.2133 12.5404 11.2017 12.5757 11.2133C12.6222 11.2283 12.6784 11.2264 12.6961 11.2838Z" fill="#DEF2E5"/>
<path fill-rule="evenodd" clip-rule="evenodd" d="M9.19306 10.822C9.22981 10.8265 9.28794 10.807 9.28419 10.8696C9.28044 10.9244 9.22494 10.9158 9.18519 10.9165C9.15331 10.9176 9.10756 10.9341 9.10456 10.8768C9.10231 10.8085 9.15556 10.8299 9.19306 10.822Z" fill="#F3FAF5"/>
<path fill-rule="evenodd" clip-rule="evenodd" d="M8.71834 10.8743C8.78622 10.8788 8.81997 10.9193 8.82259 10.983C8.82634 11.04 8.79822 11.0888 8.73972 11.094C8.67222 11.1004 8.64184 11.049 8.63809 10.9864C8.63434 10.9286 8.65684 10.8866 8.71834 10.8743Z" fill="#F3FAF6"/>
<path fill-rule="evenodd" clip-rule="evenodd" d="M15.6242 12.8982C15.6144 12.9604 15.5769 13.0043 15.5045 13.0043C15.4464 13.0035 15.4246 12.9612 15.4306 12.9098C15.4363 12.84 15.4779 12.795 15.5488 12.7962C15.6047 12.7977 15.6264 12.8378 15.6242 12.8982Z" fill="#F9FCFA"/>
<path fill-rule="evenodd" clip-rule="evenodd" d="M12.1049 11.0806C12.1428 11.1038 12.2189 11.0798 12.2298 11.1548C12.2332 11.1833 12.2017 11.1979 12.1766 11.1923C12.1274 11.1814 12.0588 11.1991 12.0528 11.1199C12.0517 11.0956 12.0626 11.0693 12.1049 11.0806Z" fill="#E7F5EC"/>
<path fill-rule="evenodd" clip-rule="evenodd" d="M13.1326 11.4887C13.1255 11.5536 13.0936 11.599 13.028 11.599C12.9635 11.5997 12.9406 11.5547 12.9436 11.4955C12.9489 11.4302 12.986 11.3867 13.0494 11.3841C13.1124 11.3819 13.1326 11.4321 13.1326 11.4887Z" fill="#F5FBF7"/>
</svg>
