<svg version="1.2" xmlns="http://www.w3.org/2000/svg" viewBox="0 0 779 808" width="779" height="808"><defs><linearGradient id="P" gradientUnits="userSpaceOnUse"/><linearGradient id="g1" x1=".1" y1=".8" x2="778.8" y2=".8" href="#P"><stop offset=".04" stop-color="#63d130"/><stop offset=".37" stop-color="#0da3ff"/><stop offset=".64" stop-color="#f23d80"/><stop offset=".82" stop-color="#f2781f"/><stop offset="1" stop-color="#f5d60a"/></linearGradient></defs><style>.a{fill:url(#g1)}</style><path fill-rule="evenodd" class="a" d="m778.8 625.4c0 24.6-4.8 48.4-14.4 70.9-9.1 21.7-22.2 41.1-38.9 57.8-16.7 16.7-36.2 29.8-57.9 39-22.4 9.5-46.3 14.3-70.8 14.3-24.5 0-48.4-4.8-70.9-14.3-21.7-9.2-41.1-22.3-57.8-39-8.3 6.4-17.3 11.8-26.9 16.1-16.5 7.3-34.1 11.1-52.2 11.1h-257c-18.1 0-35.7-3.8-52.2-11.1-15.7-6.9-29.7-16.8-41.6-29.3-23.7-24.9-36.8-57.6-36.9-92.2-1.6-115.3-1.6-229.2 0-348.3 0.1-11.2 0.4-32.1 5.6-55.7 6.9-30.9 20.2-58 39.7-80.4 23.1-26.6 53.5-45.5 90.3-56.2 23-6.7 48.3-10.1 75.2-10.1 6.2 0 12.3 0.1 18.6 0.5h133c6.4-2.6 15.3-5.6 25.9-7.2 6.3-0.9 12.7-1.4 18.9-1.4 15.5 0 30.3 2.9 44 8.6q2.8-1.9 5.6-3.6l128-77.3c18.3-11.1 39.2-16.9 60.4-16.8 19.9 0 39.6 5.3 57 15.1 17.4 9.8 32.1 24 42.4 41.1 11.1 18.1 16.9 39.1 16.9 60.5v327.2c0 13.1-2.2 25.9-6.6 38-3.9 10.9-9.4 21-16.5 30.1 10.1 12.7 18.4 26.7 24.7 41.8 9.6 22.5 14.4 46.3 14.4 70.8zm-285.7-423.4l145.9 260.6c16 28.7 59.6 17.2 59.6-15.7v-345c0-29.5-32-47.7-57.1-32.5l-135 81.5c-17.5 10.6-23.4 33.2-13.4 51.1zm-47.2 352.4c0-43-44.2-70.1-79.9-49l-142.6 81.8c-1.5 0.9-9.7 5.5-20 2.6-11.5-3.1-16.1-13-16.8-14.4q-14.4-45.4-28.9-90.8c-14.3-48.4-26.9-91.8-39.1-133.6-4.8-16.6-12.5-42.7 0.5-56.3 6.8-7.1 16.9-8.5 24.3-8.5l248.9 0.9c29.6 0 53.6-25.2 53.6-56.2v-48.4c0-22-13-39.3-40.4-35.3-9.7 1.5-17.9 8.7-27.7 8.7h-157.9c-27.1-1.8-92.1-2.2-129.4 40.7-26.1 30.1-27.1 68.2-27.4 90.3-1.4 102.9-2 227.9 0 371.6 0 31.1 24 56.3 53.6 56.3h275.6c29.6 0 53.6-25.2 53.6-56.3zm49.9-80.4c9.5-6.3 19.5-11.7 30.1-16.2q2.5-1 4.9-2l-58.3-104.1c-9.4 8.1-19.9 14.6-31.3 19.7-16.5 7.3-34.1 11.1-52.2 11.1l-165.1-0.7c7.5 25.6 15.2 52.1 23.5 80.4l4.7 14.5 71.9-41.3c19.8-11.6 42.3-17.7 64.9-17.7 17.5 0 34.5 3.5 50.7 10.4 15.5 6.7 29.5 16.2 41.5 28.2 5.4 5.5 10.4 11.5 14.7 17.7zm219.7 163.6c0-59-47.8-106.8-106.8-106.8-59 0-106.8 47.8-106.8 106.8 0 58.9 47.8 106.7 106.8 106.7 59 0 106.8-47.8 106.8-106.7z"/></svg>